<svg width="73" height="72" xmlns="http://www.w3.org/2000/svg" xmlns:xlink="http://www.w3.org/1999/xlink" xml:space="preserve" overflow="hidden"><g transform="translate(-816 -86)"><path d="M15 37.8105 41.8447 64.6553 42.9053 63.5947 16.8232 37.5127C16.8165 37.506 16.8187 37.5 16.8285 37.5L27.825 37.5C35.3832 37.4879 41.6033 31.5495 41.9655 24L57 24 57 22.5 41.9655 22.5C41.7178 17.3779 38.7229 12.7889 34.134 10.5L57 10.5 57 9 15 9 15 10.5 27.825 10.5C34.5556 10.511 40.1048 15.779 40.4655 22.5L15 22.5 15 24 40.4655 24C40.1048 30.721 34.5556 35.989 27.825 36L15 36Z" stroke="#002060" stroke-width="0.75" transform="matrix(1.01389 0 0 1 816 86)"/></g></svg>